<svg width="701" height="137" viewBox="0 0 701 137" fill="none" xmlns="http://www.w3.org/2000/svg">
<path d="M700 136.5C589.2 -21.4998 418.833 -5.99983 347.5 21.5002C239.1 64.7002 98 49.1669 41 36.0002" stroke="#FFB200" stroke-width="1.5" stroke-dasharray="8 8"/>
<g clip-path="url(#clip0_1_387)">
<path fill-rule="evenodd" clip-rule="evenodd" d="M16.6697 27.3333L36.4552 46.9979L37.294 36.9349L27.0319 33.2615C26.5117 33.075 26.0869 32.6894 25.8509 32.1897C25.6149 31.69 25.5872 31.117 25.7737 30.5967C25.9602 30.0765 26.3457 29.6517 26.8454 29.4157C27.3452 29.1797 27.9182 29.152 28.4384 29.3385L38.7014 33.0138L44.4378 24.7032L16.6697 27.3333ZM12.1555 28.7226C10.2761 26.8572 11.4264 23.6452 14.0627 23.3969L46.2742 20.3442C48.9171 20.0952 50.6485 23.0468 49.1397 25.2323L41.5348 36.2395L40.4232 49.5721C40.2015 52.2186 36.99 53.4 35.1061 51.5298L12.1555 28.7226Z" fill="#FFB200"/>
</g>
<defs>
<clipPath id="clip0_1_387">
<rect width="50" height="50" fill="white" transform="translate(21.3652 66.5706) rotate(-115.297)"/>
</clipPath>
</defs>
</svg>
